Complete name :Bbuddah Hoga Terra Baap (2011) 400MB~AudioCleaned~DVDScrRip~Team MJY~MovieJockey.Com.mp4 
Format : MPEG-4 
Format profile : Base Media / Version 2 
Codec ID : mp42 
File size : 384 MiB 
Duration : 1h 54mn 
Overall bit rate : 468 Kbps 
Encoded date : UTC 2011-07-05 08:14:17 
Tagged date : UTC 2011-07-05 09:07:56 
Writing application : HandBrake 0.9.5 2011010300 

Video 
ID : 1 
Format : AVC 
Format/Info : Advanced Video Codec 
Format profile : Main@L2.1 
Format settings, CABAC : Yes 
Format settings, ReFrames : 4 frames 
Codec ID : avc1 
Codec ID/Info : Advanced Video Coding 
Duration : 1h 54mn 
Bit rate mode : Variable 
Bit rate : 324 Kbps 
Width : 672 pixels 
Height : 288 pixels 
Display aspect ratio : 2.35:1 
Frame rate mode : Variable 
Frame rate : 25.000 fps 
Minimum frame rate : 12.500 fps 
Maximum frame rate : 25.000 fps 
Color space : YUV 
Chroma subsampling : 4:2:0 
Bit depth : 8 bits 
Scan type : Progressive 
Bits/(Pixel*Frame) : 0.067 
Stream size : 263 MiB (68%) 
Writing library : x264 core 112 

Audio 
ID : 2 
Format : AAC 
Format/Info : Advanced Audio Codec 
Format profile : LC 
Codec ID : 40 
Duration : 1h 54mn 
Bit rate mode : Variable 
Bit rate : 144 Kbps 
Maximum bit rate : 221 Kbps 
Channel(s) : 2 channels 
Channel positions : Front: L R 
Sampling rate : 24.0 KHz 
Compression mode : Lossy 
Stream size : 118 MiB (31%) 
Encoded date : UTC 2011-07-05 08:14:17 
Tagged date : UTC 2011-07-05 09:07:56 